<svg width="2500" height="741" fill="none" xmlns="http://www.w3.org/2000/svg"><g clip-path="url(#clip0)"><path d="M2483.42 653.495c0 39.208-31.76 70.965-71.04 70.965H87.622c-39.262 0-71.13-31.757-71.13-70.965V87.579c0-39.188 31.87-71.057 71.13-71.057H2412.36c39.3 0 71.04 31.869 71.04 71.057l.02 565.916z" fill="#fff"/><path d="M2412.38 740.969H87.621C39.318 740.969 0 701.744 0 653.495V87.597C0 39.312 39.318.031 87.621.031H2412.36c48.25 0 87.62 39.28 87.62 87.566v565.898c.04 48.249-39.34 87.474-87.6 87.474z" fill="#000"/><path d="M2483.42 653.495c0 39.208-31.76 70.965-71.04 70.965H87.622c-39.262 0-71.13-31.757-71.13-70.965V87.579c0-39.188 31.87-71.057 71.13-71.057H2412.36c39.3 0 71.04 31.869 71.04 71.057l.02 565.916z" fill="#000"/><path d="M558.228 366.6c-.538-59.718 48.896-88.771 51.157-90.123-27.997-40.818-71.389-46.396-86.638-46.84-36.446-3.836-71.798 21.808-90.364 21.808-18.936 0-47.525-21.438-78.338-20.808-39.651.612-76.744 23.569-97.09 59.218-41.984 72.687-10.672 179.504 29.555 238.258 20.12 28.793 43.635 60.903 74.409 59.773 30.109-1.223 41.356-19.177 77.69-19.177 35.999 0 46.562 19.177 77.948 18.454 32.315-.5 52.658-28.904 72.077-57.938 23.254-32.963 32.591-65.462 32.963-67.129-.743-.26-62.739-23.939-63.369-95.496zm-59.292-175.614c16.193-20.251 27.274-47.803 24.199-75.763-23.441 1.038-52.751 16.213-69.632 36.02-14.934 17.453-28.275 46.062-24.828 72.965 26.33 1.964 53.363-13.285 70.261-33.222zm495.398 392.768h-42.078l-23.05-72.428h-80.119l-21.956 72.428h-40.965l79.395-246.578h49.026l79.747 246.578zM922.26 480.939l-20.845-64.386c-2.205-6.578-6.355-22.068-12.434-46.451h-.74c-2.446 10.487-6.355 25.977-11.71 46.451l-20.492 64.386h66.221zm275.85 11.729c0 30.238-8.21 54.14-24.64 71.688-14.71 15.618-33 23.42-54.81 23.42-23.55 0-40.48-8.395-50.77-25.217v93.291h-39.5V464.393c0-18.993-.5-38.465-1.46-58.439h34.74l2.2 28.182h.74c13.18-21.234 33.17-31.852 60-31.852 20.97 0 38.48 8.282 52.49 24.865 13.99 16.622 21.01 38.449 21.01 65.519zm-40.24 1.445c0-17.306-3.89-31.573-11.71-42.819-8.54-11.692-20.01-17.545-34.39-17.545-9.75 0-18.6 3.259-26.52 9.688-7.93 6.485-13.11 14.953-15.54 25.44-1.22 4.892-1.83 8.875-1.83 12.027v29.662c0 12.915 3.96 23.83 11.89 32.76 7.93 8.894 18.23 13.358 30.91 13.358 14.88 0 26.46-5.761 34.74-17.195 8.3-11.469 12.45-26.588 12.45-45.376zm244.74-1.445c0 30.238-8.21 54.14-24.64 71.688-14.73 15.618-33 23.42-54.83 23.42-23.55 0-40.48-8.395-50.77-25.217v93.291h-39.5V464.393c0-18.993-.5-38.465-1.46-58.439h34.74l2.2 28.182h.74c13.16-21.234 33.15-31.852 60-31.852 20.95 0 38.46 8.282 52.51 24.865 13.97 16.622 21.01 38.449 21.01 65.519zm-40.26 1.445c0-17.306-3.91-31.573-11.73-42.819-8.54-11.692-19.97-17.545-34.35-17.545-9.75 0-18.61 3.259-26.55 9.688-7.93 6.485-13.1 14.953-15.53 25.44-1.21 4.892-1.85 8.875-1.85 12.027v29.662c0 12.915 3.98 23.83 11.87 32.76 7.93 8.875 18.23 13.358 30.95 13.358 14.89 0 26.47-5.761 34.74-17.195 8.3-11.469 12.45-26.588 12.45-45.376zm268.9 20.474c0 20.993-7.34 38.058-21.92 51.231-16.04 14.379-38.44 21.586-67.16 21.586-26.54 0-47.81-5.114-63.85-15.36l9.13-32.925c17.33 10.265 36.36 15.378 57.07 15.378 14.9 0 26.48-3.372 34.74-10.061 8.28-6.707 12.47-15.675 12.47-26.866 0-10.022-3.46-18.417-10.26-25.253-6.84-6.818-18.14-13.174-34.02-19.01-43.17-16.101-64.78-39.651-64.78-70.631 0-20.233 7.64-36.797 22.87-49.749 15.23-12.933 35.42-19.398 60.55-19.398 22.44 0 41.13 3.91 55.97 11.71l-9.91 32.201c-13.97-7.559-29.74-11.339-47.38-11.339-13.93 0-24.86 3.428-32.68 10.246-6.58 6.096-9.92 13.528-9.92 22.346 0 9.729 3.8 17.807 11.36 24.144 6.56 5.835 18.53 12.192 35.84 19.01 21.23 8.56 36.83 18.529 46.82 29.979 10.06 11.448 15.06 25.733 15.06 42.761zm130.94-78.987h-43.54v86.324c0 21.957 7.67 32.907 23.05 32.907 7.06 0 12.92-.595 17.55-1.834l1.09 29.997c-7.78 2.911-18.03 4.373-30.72 4.373-15.6 0-27.79-4.762-36.59-14.285-8.77-9.524-13.18-25.477-13.18-47.934v-89.622h-25.94V405.88h25.94v-32.555l38.8-11.71v44.265h43.54v29.72zm196.07 57.79c0 27.328-7.82 49.766-23.42 67.314-16.32 18.066-38.04 27.071-65.11 27.071-26.12 0-46.89-8.653-62.38-25.94-15.49-17.326-23.24-39.151-23.24-65.48 0-27.554 8.01-50.12 23.96-67.666 15.99-17.565 37.52-26.346 64.59-26.346 26.09 0 47.05 8.67 62.9 25.975 15.16 16.787 22.7 38.465 22.7 65.072zm-40.95.908c0-16.288-3.51-30.258-10.58-41.95-8.28-14.119-20.14-21.176-35.5-21.176-15.82 0-27.95 7.057-36.22 21.176-7.08 11.692-10.6 25.903-10.6 42.69 0 16.306 3.52 30.313 10.6 41.969 8.54 14.118 20.46 21.178 35.89 21.178 15.1 0 26.94-7.208 35.5-21.531 7.27-11.969 10.91-26.032 10.91-42.356zm169.41-53.603c-3.91-.724-8.1-1.094-12.45-1.094-13.9 0-24.64 5.226-32.2 15.749-6.56 9.264-9.86 20.974-9.86 35.111v93.291h-39.5V461.947c0-20.474-.39-39.15-1.15-55.974h34.41l1.44 34.017h1.1c4.18-11.69 10.74-21.123 19.75-28.182 8.8-6.354 18.3-9.524 28.55-9.524 3.65 0 6.95.259 9.88.724l.03 37.687zm176.67 45.747c0 7.078-.46 13.043-1.45 17.917h-118.5c.44 17.565 6.19 31.017 17.19 40.281 9.99 8.266 22.9 12.414 38.76 12.414 17.55 0 33.56-2.779 47.95-8.393l6.19 27.404c-16.82 7.337-36.68 10.987-59.6 10.987-27.57 0-49.22-8.117-64.96-24.309-15.72-16.213-23.59-38.002-23.59-65.295 0-26.794 7.32-49.119 21.97-66.925 15.35-19.01 36.08-28.517 62.17-28.517 25.62 0 45.02 9.505 58.19 28.517 10.44 15.064 15.68 33.74 15.68 55.919zm-37.67-10.246c.28-11.729-2.31-21.827-7.67-30.368-6.84-11.006-17.36-16.491-31.46-16.491-12.92 0-23.44 5.355-31.44 16.101-6.58 8.542-10.49 18.807-11.69 30.721l82.26.037zM903.212 248.925h-20.698l-11.321-35.593H831.82l-10.803 35.593h-20.14l39.021-121.195h24.087l39.227 121.195zm-35.428-50.527l-10.247-31.647c-1.074-3.243-3.057-10.784-6.114-22.827h-.371c-1.26 5.206-3.057 12.766-5.762 22.827l-10.061 31.647h32.555zm132.996-36.854l-33.091 87.381h-18.882l-32.016-87.381h20.864l14.934 46.211c2.519 7.726 4.669 15.1 6.281 22.104h.537c1.447-6.281 3.595-13.655 6.281-22.104l14.749-46.211h20.343zm70.45 87.381l-1.45-10.063h-.54c-5.93 8.097-14.56 12.044-25.53 12.044-15.64 0-26.79-10.969-26.79-25.718 0-21.567 18.69-32.721 51.06-32.721v-1.612c0-11.506-6.11-17.269-18.16-17.269-8.63 0-16.19 2.168-22.82 6.485l-3.95-12.766c8.1-5.039 18.16-7.559 30.03-7.559 22.83 0 34.36 12.043 34.36 36.149v32.184c0 8.819.37 15.656 1.26 20.863l-17.47-.017zm-2.71-43.524c-21.58 0-32.37 5.226-32.37 17.621 0 9.172 5.58 13.656 13.31 13.656 9.89 0 19.06-7.541 19.06-17.788v-13.489zm62.16-58.253c-6.46 0-11.5-5.04-11.5-11.692 0-6.651 5.21-11.506 11.88-11.506 6.65 0 12.04 4.855 11.86 11.506 0 7.023-5.03 11.692-12.24 11.692zm10.08 101.777h-19.41v-87.381h19.41v87.381zm53.92 0h-19.42V121.449h19.42v127.476zm82.53 0l-1.45-10.063h-.53c-5.93 8.097-14.57 12.044-25.54 12.044-15.63 0-26.79-10.969-26.79-25.718 0-21.567 18.69-32.721 51.06-32.721v-1.612c0-11.506-6.11-17.269-18.15-17.269-8.64 0-16.2 2.168-22.83 6.485l-3.96-12.784c8.09-5.04 18.15-7.56 30.03-7.56 22.83 0 34.35 12.044 34.35 36.149v32.184c0 8.82.39 15.657 1.24 20.863h-17.43v.002zm-2.71-43.524c-21.58 0-32.37 5.226-32.37 17.621 0 9.172 5.58 13.656 13.31 13.656 9.89 0 19.06-7.541 19.06-17.788v-13.489zm97.58 45.507c-12.4 0-21.55-5.225-27.48-15.472h-.39l-1.11 13.489h-16.55c.54-7.004.72-14.934.72-23.55V121.449h19.44v52.88h.37c5.76-9.709 15.08-14.563 27.87-14.563 21.04 0 35.79 17.991 35.79 44.227 0 27.126-16.38 46.915-38.66 46.915zm-3.95-75.893c-11.17 0-21.4 9.709-21.4 23.197v15.286c0 12.044 9.19 21.938 21.07 21.938 14.54 0 23.19-11.858 23.19-30.739-.02-17.62-9.02-29.682-22.86-29.682zm90.73 73.91h-19.4V121.449h19.4v127.476zm105.71-39.021h-58.29c.39 16.546 11.32 25.884 27.51 25.884 8.64 0 16.55-1.445 23.55-4.132l3.02 13.489c-8.26 3.595-17.97 5.392-29.29 5.392-27.35 0-43.53-17.269-43.53-44.042 0-26.793 16.57-46.933 41.34-46.933 22.29 0 36.34 16.546 36.34 41.541.07 3.409-.1 6.466-.65 8.801zm-17.81-13.841c0-13.489-6.84-23.012-19.25-23.012-11.16 0-19.94 9.709-21.23 23.012h40.48zm135.5 54.845c-25.53 0-42.08-19.066-42.08-44.951 0-26.977 16.9-46.21 43.54-46.21 25.15 0 42.08 18.158 42.08 44.784 0 27.311-17.45 46.377-43.54 46.377zm.74-76.968c-14.02 0-23.01 13.118-23.01 31.461 0 17.992 9.17 31.11 22.83 31.11 13.65 0 22.8-14.026 22.8-31.48.02-17.787-8.96-31.091-22.62-31.091zm147.19 74.985h-19.4V198.75c0-15.453-5.93-23.198-17.62-23.198-11.5 0-19.43 9.894-19.43 21.4v51.973h-19.4v-62.404c0-7.726-.21-16.009-.72-24.995h17.08l.91 13.489h.53c5.19-9.339 15.83-15.286 27.69-15.286 18.32 0 30.36 14.026 30.36 36.853v52.343zm127.05-72.817h-21.36v42.43c0 10.802 3.76 16.194 11.3 16.194 3.43 0 6.32-.37 8.64-.908l.53 14.749c-3.78 1.447-8.84 2.168-15.08 2.168-15.3 0-24.44-8.449-24.44-30.572v-44.061h-12.75v-14.564h12.75v-16.008l19.05-5.763v21.753h21.36v14.582zm102.84 72.817h-19.44V199.12c0-15.638-5.93-23.549-17.62-23.549-10.06 0-19.4 6.837-19.4 20.677v52.677h-19.44V121.449h19.44v52.491h.37c6.12-9.524 14.94-14.211 26.26-14.211 18.51 0 29.83 14.378 29.83 37.223v51.973zm99.22-39.021h-58.27c.37 16.546 11.3 25.884 27.49 25.884 8.66 0 16.55-1.445 23.55-4.132l3.04 13.489c-8.26 3.595-17.99 5.392-29.31 5.392-27.35 0-43.52-17.269-43.52-44.042 0-26.793 16.56-46.933 41.33-46.933 22.29 0 36.34 16.546 36.34 41.541.07 3.409-.12 6.466-.65 8.801zm-17.81-13.841c0-13.489-6.82-23.012-19.23-23.012-11.18 0-19.96 9.709-21.24 23.012h40.47z" fill="#fff"/></g><defs><clipPath id="clip0"><path fill="#fff" d="M0 0h2500v741H0z"/></clipPath></defs></svg>