<svg width="309" height="425" fill="none" xmlns="http://www.w3.org/2000/svg"><path fill-rule="evenodd" clip-rule="evenodd" d="M20.645 144.374a10 10 0 019.98-9.376h249.378a10 10 0 019.98 9.376l16.625 266.003a9.998 9.998 0 01-9.98 10.624H14a10 10 0 01-9.98-10.624l16.625-266.003zm19.375 10.624L24.644 401.001h261.339l-15.375-246.003H40.02z" fill="#E2268E"/><path fill-rule="evenodd" clip-rule="evenodd" d="M70.5 203.186c0-5.523 4.477-10 10-10h149.627c5.522 0 10 4.477 10 10v149.627c0 5.522-4.478 10-10 10H80.5c-5.523 0-10-4.478-10-10V203.186zm20 10v129.627h129.627V213.186H90.5z" fill="#E2268E"/><path fill-rule="evenodd" clip-rule="evenodd" d="M107.955 207.333c0-5.523 4.477-10 10-10h74.813c5.523 0 10 4.477 10 10v74.813a10 10 0 01-14.953 8.687c-13.989-7.976-23.62-11.15-32.49-11.15-8.866 0-18.469 3.171-32.404 11.143a9.999 9.999 0 01-14.966-8.68v-74.813zm20 10v48.553c9.295-3.98 18.168-6.203 27.37-6.203 9.216 0 18.113 2.229 27.443 6.22v-48.57h-54.813zM112.637 60.988C99.277 85.233 90.5 115.797 90.5 140.845h-20c0-28.983 9.925-62.84 24.62-89.509 7.373-13.38 16.201-25.421 26.048-34.247C130.935 8.335 142.569 2.001 155.312 2c12.744-.001 24.379 6.331 34.146 15.085 9.847 8.826 18.675 20.868 26.048 34.248 14.695 26.67 24.621 60.529 24.621 89.512h-20c0-25.048-8.778-55.614-22.138-79.86-6.655-12.078-14.192-22.116-21.88-29.006-7.767-6.962-14.835-9.98-20.795-9.979-5.96 0-13.029 3.02-20.797 9.982-7.687 6.89-15.225 16.929-21.88 29.006z" fill="#E2268E"/></svg>