<svg width="427" height="294" fill="none" xmlns="http://www.w3.org/2000/svg"><path fill-rule="evenodd" clip-rule="evenodd" d="M39.111 15c0-5.523 4.478-10 10-10h226.991c5.523 0 10 4.477 10 10v98.336h100.916a10 10 0 017.682 3.599l25.794 30.953a9.997 9.997 0 012.318 6.402v87.701c0 5.522-4.477 10-10 10h-43.85c-5.523 0-10-4.478-10-10 0-5.523 4.477-10 10-10h33.85V157.91l-20.478-24.574H276.102c-5.523 0-10-4.477-10-10V25H49.112c-5.523 0-10-4.477-10-10zm139.291 226.99c0-5.523 4.477-10 10-10h92.86c5.523 0 10 4.477 10 10s-4.477 10-10 10h-92.86c-5.523 0-10-4.477-10-10zm-139.291 0c0-5.523 4.478-10 10-10H100.7c5.523 0 10 4.477 10 10s-4.477 10-10 10H49.111c-5.522 0-10-4.477-10-10zm-15.476-67.065c0-5.523 4.477-10 10-10h77.383c5.523 0 10 4.477 10 10s-4.477 10-10 10H33.635c-5.523 0-10-4.477-10-10zM3 123.336c0-5.522 4.477-10 10-10h128.972c5.523 0 10 4.478 10 10 0 5.523-4.477 10-10 10H13c-5.523 0-10-4.477-10-10z" fill="#E2268E"/><path fill-rule="evenodd" clip-rule="evenodd" d="M24.18 71.748c0-5.523 4.477-10 10-10h128.428c5.522 0 10 4.477 10 10 0 5.522-4.478 10-10 10H34.18c-5.523 0-10-4.478-10-10zm241.922-28.374c0-5.523 4.477-10 10-10h72.224a10 10 0 019.001 5.644l38.692 79.963c2.406 4.971.325 10.952-4.646 13.357-4.971 2.406-10.952.326-13.357-4.646l-35.961-74.318h-65.953c-5.523 0-10-4.477-10-10zM325.112 271c14.596 0 26.429-11.833 26.429-26.429 0-14.597-11.833-26.43-26.429-26.43-14.597 0-26.43 11.833-26.43 26.43 0 14.596 11.833 26.429 26.43 26.429zm0 20c25.642 0 46.429-20.787 46.429-46.429 0-25.643-20.787-46.43-46.429-46.43-25.643 0-46.43 20.787-46.43 46.43 0 25.642 20.787 46.429 46.43 46.429zm-180.561-20c14.597 0 26.43-11.833 26.43-26.429 0-14.597-11.833-26.43-26.43-26.43s-26.43 11.833-26.43 26.43c0 14.596 11.833 26.429 26.43 26.429zm0 20c25.643 0 46.43-20.787 46.43-46.429 0-25.643-20.787-46.43-46.43-46.43s-46.43 20.787-46.43 46.43c0 25.642 20.787 46.429 46.43 46.429z" fill="#E2268E"/></svg>