<svg width="2500" height="741" fill="none" xmlns="http://www.w3.org/2000/svg"><g clip-path="url(#clip0)"><path d="M2407.41 740.87H92.593C40.74 740.87 0 700.129 0 648.278V92.722C0 40.87 40.74.129 92.593.129H2407.41c51.85 0 92.59 40.741 92.59 92.593v555.556c0 51.851-40.74 92.592-92.59 92.592z" fill="#000"/><path d="M2407.41 14.944c42.59 0 77.78 35.185 77.78 77.778v555.556c0 42.592-35.19 77.777-77.78 77.777H92.593c-42.593 0-77.778-35.185-77.778-77.777V92.722c0-42.593 35.185-77.778 77.778-77.778H2407.41zm0-14.815H92.593C40.74.13 0 42.722 0 92.722v555.556c0 51.851 40.74 92.592 92.593 92.592H2407.41c51.85 0 92.59-40.741 92.59-92.592V92.722c0-50-40.74-92.593-92.59-92.593z" fill="#000"/><path d="M877.777 189.018c0 14.815-3.704 27.778-12.963 37.037-11.111 11.111-24.074 16.667-40.741 16.667-16.666 0-29.629-5.556-40.74-16.667s-16.667-24.074-16.667-40.74c0-16.667 5.556-29.63 16.667-40.741s24.074-16.667 40.74-16.667c7.408 0 14.815 1.852 22.223 5.556 7.407 3.703 12.963 7.407 16.666 12.963l-9.259 9.259c-7.407-9.259-16.667-12.963-29.63-12.963-11.111 0-22.222 3.704-29.629 12.963-9.259 7.407-12.963 18.519-12.963 31.481 0 12.963 3.704 24.075 12.963 31.482 9.259 7.407 18.518 12.963 29.629 12.963 12.963 0 22.223-3.704 31.482-12.963 5.555-5.556 9.259-12.963 9.259-22.222h-40.741v-14.815h53.704v7.407zm85.185-46.296h-50v35.185h46.297v12.963h-46.297v35.185h50v14.815h-64.815V129.759h64.815v12.963zm61.108 98.148h-14.81v-98.148h-31.483v-12.963h77.773v12.963h-31.48v98.148zm85.19 0V129.759h14.81V240.87h-14.81zm77.78 0h-14.82v-98.148h-31.48v-12.963h75.93v12.963h-31.49v98.148h1.86zm175.92-14.815c-11.11 11.111-24.07 16.667-40.74 16.667s-29.63-5.556-40.74-16.667c-11.11-11.111-16.67-24.074-16.67-40.74 0-16.667 5.56-29.63 16.67-40.741 11.11-11.111 24.07-16.667 40.74-16.667s29.63 5.556 40.74 16.667c11.11 11.111 16.67 24.074 16.67 40.741 0 16.666-5.56 29.629-16.67 40.74zm-70.37-9.259c7.41 7.408 18.52 12.963 29.63 12.963s22.22-3.704 29.63-12.963c7.41-7.407 12.96-18.518 12.96-31.481 0-12.963-3.7-24.074-12.96-31.482-7.41-7.407-18.52-12.963-29.63-12.963s-22.22 3.704-29.63 12.963c-7.41 7.408-12.96 18.519-12.96 31.482 0 12.963 3.7 24.074 12.96 31.481zM1400 240.87V129.759h16.67l53.7 87.037v-87.037h14.81V240.87h-14.81l-57.41-90.741v90.741H1400z" fill="#fff"/><path fill-rule="evenodd" clip-rule="evenodd" d="M824.074 129.759c-16.177 0-28.668 5.361-39.432 16.125-10.763 10.763-16.124 23.254-16.124 39.431 0 16.176 5.361 28.668 16.124 39.431 10.764 10.763 23.255 16.124 39.432 16.124 16.176 0 28.668-5.361 39.431-16.124 8.789-8.789 12.421-21.198 12.421-35.727v-5.556h-50v11.111h40.74v1.852c0 9.802-3.937 17.667-9.801 23.532-4.765 4.765-9.595 8.163-14.961 10.358-5.364 2.194-11.168 3.147-17.83 3.147-11.769 0-21.451-5.9-30.787-13.369-9.846-7.877-13.658-19.623-13.658-32.927 0-13.232 3.77-24.923 13.498-32.799 7.854-9.7 19.509-13.498 30.947-13.498 12.655 0 22.138 3.453 29.748 12.078l6.724-6.724c-3.417-4.491-8.349-7.74-15.078-11.105-7.181-3.59-14.307-5.36-21.394-5.36zm-42.051 13.506c11.46-11.459 24.894-17.209 42.051-17.209 7.727 0 15.416 1.934 23.05 5.751 7.486 3.743 13.401 7.624 17.379 13.592l.842 1.263-11.795 11.796-1.293-1.616c-6.985-8.732-15.659-12.268-28.183-12.268-10.722 0-21.224 3.568-28.184 12.268l-.128.161-.161.128c-8.672 6.938-12.268 17.414-12.268 30.036s3.596 23.098 12.268 30.035c9.182 7.346 18.019 12.557 28.473 12.557 6.3 0 11.607-.899 16.428-2.871 4.82-1.972 9.249-5.055 13.744-9.549 4.869-4.87 8.209-11.206 8.663-19.061h-40.687v-18.519h57.407v9.26c0 15.1-3.776 28.617-13.505 38.346-11.459 11.459-24.893 17.209-42.05 17.209-17.157 0-30.591-5.75-42.051-17.209-11.459-11.459-17.209-24.893-17.209-42.05 0-17.157 5.75-30.591 17.209-42.05zm540.197-13.506c-16.17 0-28.67 5.362-39.43 16.125-10.76 10.763-16.12 23.254-16.12 39.431 0 16.176 5.36 28.668 16.12 39.431 10.76 10.763 23.26 16.124 39.43 16.124 16.18 0 28.67-5.361 39.43-16.124 10.77-10.763 16.13-23.255 16.13-39.431 0-16.177-5.36-28.668-16.13-39.431-10.76-10.764-23.25-16.125-39.43-16.125zm-42.05 13.506c11.46-11.459 24.9-17.209 42.05-17.209 17.16 0 30.59 5.75 42.05 17.209 11.46 11.459 17.21 24.893 17.21 42.05 0 17.157-5.75 30.591-17.21 42.05-11.46 11.459-24.89 17.209-42.05 17.209-17.15 0-30.59-5.75-42.05-17.209-11.46-11.459-17.21-24.893-17.21-42.05 0-17.157 5.75-30.591 17.21-42.05zm-383.874-15.357h68.518v16.666h-50v31.482h46.297v16.666h-46.297v31.482h50v18.518h-68.518V127.908zm3.704 3.703v107.408h61.111v-11.111h-50v-38.889h46.296v-9.26h-46.296V140.87h50v-9.259H900zm75.926-3.703h81.484v16.666h-31.48v98.148h-18.52v-98.148h-31.484v-16.666zm3.703 3.703v9.259h31.481v98.149h11.11V140.87h31.48v-9.259h-74.071zm127.781-3.703h18.52v114.814h-18.52V127.908zm3.7 3.703v107.408h11.11V131.611h-11.11zm27.78-3.703h79.63v16.666h-31.48v98.148h-16.67v-98.148h-31.48v-16.666zm44.44 111.111h-9.26V140.87h-31.48v-9.259h72.22v9.259h-31.48v98.149zm214.82-111.111h19.55l50.82 82.361v-82.361h18.52v114.814h-17.69l-54.54-86.201v86.201H1400v-1.852h-1.85V127.908zm3.7 111.111h9.26v-95.28l60.28 95.28h11.94V131.611h-11.11v91.713l-56.59-91.713h-13.78v107.408zm-110.64-86.423c7.85-9.759 19.54-13.577 31.01-13.577 11.65 0 23.18 5.781 30.87 13.433 9.79 7.877 13.58 19.595 13.58 32.863 0 13.457-5.75 24.998-13.44 32.718-7.85 9.759-19.54 13.578-31.01 13.578-11.65 0-23.18-5.781-30.86-13.433-9.79-7.876-13.58-19.595-13.58-32.863 0-13.458 5.75-24.998 13.43-32.719zm31.01-9.874c-10.72 0-21.22 3.568-28.18 12.268l-.07.08-.07.073c-7.09 7.094-12.42 17.746-12.42 30.172 0 12.622 3.6 23.098 12.27 30.035l.08.064.07.073c7.13 7.127 17.79 12.421 28.32 12.421 10.72 0 21.23-3.568 28.19-12.268l.06-.081.07-.072c7.1-7.094 12.42-17.746 12.42-30.172 0-12.622-3.59-23.098-12.27-30.036l-.08-.064-.07-.072c-7.12-7.127-17.79-12.421-28.32-12.421z" fill="#fff"/><path d="M1261.11 403.833c-44.44 0-79.63 33.334-79.63 79.63 0 44.445 35.19 79.63 79.63 79.63 44.45 0 79.63-33.334 79.63-79.63 0-48.148-35.18-79.63-79.63-79.63zm0 125.926c-24.07 0-44.44-20.37-44.44-48.148 0-27.778 20.37-48.148 44.44-48.148 24.08 0 44.45 18.519 44.45 48.148 0 27.778-20.37 48.148-44.45 48.148zm-172.22-125.926c-44.45 0-79.63 33.334-79.63 79.63 0 44.445 35.18 79.63 79.63 79.63 44.44 0 79.63-33.334 79.63-79.63 0-48.148-35.19-79.63-79.63-79.63zm0 125.926c-24.07 0-44.45-20.37-44.45-48.148 0-27.778 20.38-48.148 44.45-48.148 24.07 0 44.44 18.519 44.44 48.148 0 27.778-20.37 48.148-44.44 48.148zM883.334 427.908v33.333h79.629c-1.852 18.518-9.259 33.333-18.518 42.592-11.111 11.112-29.63 24.074-61.111 24.074-50 0-87.037-38.888-87.037-88.888 0-50 38.888-88.889 87.037-88.889 25.926 0 46.296 11.111 61.111 24.074l24.074-24.074c-20.371-18.519-46.297-33.334-83.334-33.334-66.666 0-124.074 55.556-124.074 122.223 0 66.666 57.408 122.222 124.074 122.222 37.037 0 62.963-11.111 85.186-35.185 22.222-22.223 29.629-53.704 29.629-77.778 0-7.408 0-14.815-1.852-20.37H883.334zm840.736 25.925c-7.4-18.518-25.92-50-66.66-50-40.74 0-74.08 31.482-74.08 79.63 0 44.445 33.34 79.63 77.78 79.63 35.19 0 57.41-22.223 64.82-35.186L1700 509.389c-9.26 12.963-20.37 22.222-38.89 22.222s-29.63-7.407-38.89-24.074l105.56-44.444-3.71-9.26zm-107.4 25.926c0-29.629 24.07-46.296 40.74-46.296 12.96 0 25.92 7.407 29.63 16.667l-70.37 29.629zm-87.04 75.926h35.19V324.204h-35.19v231.481zM1474.07 420.5c-9.25-9.259-24.07-18.518-42.59-18.518-38.89 0-75.92 35.185-75.92 79.629 0 44.445 35.18 77.778 75.92 77.778 18.52 0 33.34-9.259 40.74-18.519h1.85v11.112c0 29.629-16.66 46.296-42.59 46.296-20.37 0-35.18-14.815-38.89-27.778l-29.63 12.963c9.26 20.37 31.48 46.296 70.37 46.296 40.74 0 74.08-24.074 74.08-81.481V407.537h-33.34V420.5zm-40.74 109.259c-24.07 0-44.44-20.37-44.44-48.148 0-27.778 20.37-48.148 44.44-48.148 24.08 0 42.6 20.37 42.6 48.148 0 27.778-18.52 48.148-42.6 48.148zm451.86-205.555h-83.34v231.481h35.19v-87.037h48.15c38.88 0 75.92-27.778 75.92-72.222 0-44.444-37.04-72.222-75.92-72.222zm1.85 111.111h-50v-79.63h50c25.92 0 40.74 22.222 40.74 38.889-1.85 20.371-16.67 40.741-40.74 40.741zM2100 401.982c-25.93 0-51.85 11.111-61.11 35.185l31.48 12.963c7.41-12.963 18.52-16.667 31.48-16.667 18.52 0 35.19 11.111 37.04 29.63v1.852c-5.56-3.704-20.37-9.26-35.19-9.26-33.33 0-66.66 18.519-66.66 51.852 0 31.482 27.78 51.852 57.4 51.852 24.08 0 35.19-11.111 44.45-22.222h1.85v18.518h33.33v-88.889c-3.7-40.74-35.18-64.814-74.07-64.814zm-3.7 127.777c-11.11 0-27.78-5.555-27.78-20.37 0-18.519 20.37-24.074 37.04-24.074 14.81 0 22.22 3.704 31.48 7.407-3.71 22.223-22.23 37.037-40.74 37.037zm194.44-122.222l-38.89 100H2250l-40.74-100h-37.04l61.11 140.741-35.18 77.778h35.18l94.45-218.519h-37.04zm-311.11 148.148h35.19V324.204h-35.19v231.481zM598 369.5L286.75 549.2V189.8L598 369.5z" fill="#fff"/><path fill-rule="evenodd" clip-rule="evenodd" d="M633 369.5a35 35 0 01-17.5 30.311l-311.25 179.7a35 35 0 01-52.5-30.311V189.8a35 35 0 0152.5-30.311l311.25 179.7A35 35 0 01633 369.5zm-105 0L321.75 250.422v238.157L528 369.5z" fill="#fff"/></g><defs><clipPath id="clip0"><path fill="#fff" d="M0 0h2500v741H0z"/></clipPath></defs></svg>