<svg width="401" height="401" fill="none" xmlns="http://www.w3.org/2000/svg"><g clip-path="url(#clip0)"><circle cx="200" cy="200" r="150" fill="#fff"/><path d="M342.4 58.557c-78.116-78.093-204.75-78.074-282.843.043-78.093 78.117-78.074 204.75.043 282.843 78.117 78.093 204.75 78.074 282.843-.043a199.997 199.997 0 00-.043-282.843zm-38.507 220.041l-.026.027v-.067l-10.134 10.067a53.333 53.333 0 01-50.333 14.4 177.224 177.224 0 01-51.467-23.067 237.803 237.803 0 01-40.6-32.733A239.61 239.61 0 01121 210.424a186.623 186.623 0 01-22.8-46.133 53.33 53.33 0 0113.333-54.466L123.4 97.958a8.465 8.465 0 0112 0l37.466 37.467a8.465 8.465 0 01.026 11.973l-.026.027-22 22c-6.313 6.243-7.106 16.165-1.866 23.333a257.36 257.36 0 0026.333 30.734A255.68 255.68 0 00210 252.625a18.065 18.065 0 0023.066-2l21.266-21.6a8.467 8.467 0 0111.974-.026l.026.026 37.534 37.6a8.465 8.465 0 01.027 11.973z" fill="#000"/></g><defs><clipPath id="clip0"><path fill="#fff" d="M0 0h401v401H0z"/></clipPath></defs></svg>